<?xml version="1.0" standalone="no"?>
<!DOCTYPE svg PUBLIC "-//W3C//DTD SVG 20010904//EN"
 "http://www.w3.org/TR/2001/REC-SVG-20010904/DTD/svg10.dtd">
<svg version="1.0" xmlns="http://www.w3.org/2000/svg"
 width="512.000000pt" height="512.000000pt" viewBox="0 0 512.000000 512.000000"
 preserveAspectRatio="xMidYMid meet">

<g transform="translate(0.000000,512.000000) scale(0.100000,-0.100000)"
fill="#000000" stroke="none">
<path d="M1350 4194 c-176 -46 -336 -189 -400 -359 l-9 -23 67 23 c164 57 106
55 1551 55 1435 0 1388 2 1548 -53 l72 -25 -15 37 c-69 167 -224 301 -399 346
-87 22 -2330 22 -2415 -1z"/>
<path d="M1175 3551 c-134 -33 -247 -100 -334 -198 -52 -57 -113 -170 -125
-228 l-7 -31 98 48 c54 26 141 60 193 75 l95 28 1420 3 c1045 2 1440 0 1495
-8 101 -16 219 -54 314 -102 43 -22 80 -37 83 -34 3 2 -1 22 -7 43 -48 147
-168 282 -311 352 -155 75 -72 71 -1534 70 -1211 0 -1315 -2 -1380 -18z"/>
<path d="M1131 2919 c-178 -35 -358 -143 -471 -282 -72 -88 -137 -225 -160
-339 -18 -85 -20 -138 -20 -588 1 -373 4 -514 14 -570 59 -327 320 -587 646
-646 111 -20 2730 -20 2840 0 337 61 601 334 650 671 8 55 10 240 8 590 -4
575 -3 564 -83 730 -96 199 -263 340 -490 417 l-70 23 -1410 2 c-777 0 -1430
-3 -1454 -8z m1509 -651 c70 -48 75 -62 78 -239 l3 -159 137 0 c75 0 153 -5
174 -10 49 -14 104 -76 113 -129 9 -53 -25 -126 -74 -158 -32 -21 -45 -23
-192 -23 l-158 0 -3 -164 c-3 -180 -7 -192 -72 -240 -39 -29 -133 -29 -172 0
-65 48 -69 60 -72 240 l-3 164 -158 0 c-147 0 -160 2 -192 23 -49 32 -83 105
-74 158 9 53 64 115 113 129 21 5 99 10 174 10 l137 0 3 159 c3 143 5 162 24
188 35 48 82 73 134 73 32 0 57 -7 80 -22z"/>
</g>
</svg>
