<?xml version="1.0" standalone="no"?>
<!DOCTYPE svg PUBLIC "-//W3C//DTD SVG 20010904//EN"
 "http://www.w3.org/TR/2001/REC-SVG-20010904/DTD/svg10.dtd">
<svg version="1.0" xmlns="http://www.w3.org/2000/svg"
 width="512.000000pt" height="512.000000pt" viewBox="0 0 512.000000 512.000000"
 preserveAspectRatio="xMidYMid meet">

<g transform="translate(0.000000,512.000000) scale(0.100000,-0.100000)"
fill="#000000" stroke="none">
<path d="M2015 4679 c-288 -14 -390 -48 -521 -172 -117 -110 -167 -226 -181
-416 l-8 -103 -55 -21 c-129 -47 -243 -148 -304 -269 -40 -81 -62 -177 -72
-321 l-7 -94 -63 -31 c-121 -60 -243 -200 -287 -330 -59 -175 -104 -964 -78
-1358 18 -269 50 -572 66 -636 34 -134 122 -258 240 -337 133 -89 183 -98 705
-126 921 -49 1352 -48 2308 6 404 22 469 33 580 95 148 83 259 243 287 414 16
96 39 341 56 595 24 353 -15 1097 -68 1310 -35 142 -156 293 -287 361 l-73 38
-7 93 c-14 196 -46 299 -129 408 -65 85 -185 170 -276 194 -25 7 -26 10 -34
112 -4 57 -15 129 -23 159 -57 199 -225 359 -425 404 -140 32 -895 46 -1344
25z m1048 -329 c187 -9 226 -13 268 -32 91 -39 149 -136 149 -250 l0 -49 -357
8 c-197 4 -450 8 -563 8 -113 0 -366 -4 -562 -8 l-358 -8 0 49 c0 114 58 211
149 250 42 19 82 23 268 32 381 18 612 18 1006 0z m37 -650 c523 -15 626 -22
675 -48 46 -23 86 -63 109 -109 15 -30 35 -139 36 -192 l0 -24 -102 7 c-845
55 -1454 57 -2321 10 -159 -8 -291 -13 -294 -10 -10 10 16 175 33 208 23 47
63 87 109 110 47 24 166 33 620 47 417 12 729 12 1135 1z m15 -660 c328 -13
799 -39 919 -50 114 -10 168 -36 222 -108 41 -53 48 -91 75 -372 40 -440 40
-763 -1 -1215 -25 -283 -36 -331 -91 -390 -67 -73 -102 -82 -375 -99 -1008
-64 -1571 -64 -2603 0 -279 17 -313 26 -380 99 -55 59 -66 106 -91 388 -41
449 -41 777 -1 1217 26 276 34 317 72 370 36 49 107 96 157 104 60 10 606 40
1072 59 177 8 813 6 1025 -3z"/>
<path d="M2525 2500 c-43 -9 -81 -37 -105 -75 -18 -29 -20 -49 -20 -194 l0
-161 -152 0 c-171 0 -217 -13 -260 -73 -31 -44 -32 -143 -2 -183 48 -65 60
-69 245 -72 l169 -3 0 -163 c0 -153 1 -165 23 -197 24 -37 97 -79 137 -79 40
0 113 42 137 79 22 32 23 44 23 197 l0 163 169 3 c185 3 197 7 245 72 31 41
29 139 -3 185 -42 59 -85 71 -258 71 l-153 0 0 156 c0 178 -9 210 -69 249 -42
26 -84 35 -126 25z"/>
</g>
</svg>
